#tb 0: 1/25
#media_type 0: video
#codec_id 0: rawvideo
#dimensions 0: 352x288
#sar 0: 0/1
0,          0,          0,        1,   608256, 0x1846404e
0,          1,          1,        1,   608256, 0x6740fc8b
0,          2,          2,        1,   608256, 0xcf3f2b5b
0,          3,          3,        1,   608256, 0x07432437
0,          4,          4,        1,   608256, 0x4c4ca9b9
0,          5,          5,        1,   608256, 0xf62ba11e
0,          6,          6,        1,   608256, 0x2eff1b4f
0,          7,          7,        1,   608256, 0xb74ffe3e
0,          8,          8,        1,   608256, 0x6e09cb05
0,          9,          9,        1,   608256, 0x162208f6
0,         10,         10,        1,   608256, 0xda0076ae
0,         11,         11,        1,   608256, 0x079e46b4
0,         12,         12,        1,   608256, 0x92e7d472
0,         13,         13,        1,   608256, 0x81a110d0
0,         14,         14,        1,   608256, 0x7ecb1f0b
0,         15,         15,        1,   608256, 0x34815926
0,         16,         16,        1,   608256, 0xc453a35c
0,         17,         17,        1,   608256, 0x350e8a06
0,         18,         18,        1,   608256, 0x5897699b
0,         19,         19,        1,   608256, 0x4e10c615
0,         20,         20,        1,   608256, 0xae0c7577
0,         21,         21,        1,   608256, 0x90fbf19e
0,         22,         22,        1,   608256, 0x5ba06a0a
0,         23,         23,        1,   608256, 0x75587730
0,         24,         24,        1,   608256, 0xe5210d26
0,         25,         25,        1,   608256, 0xb3e78ef2
0,         26,         26,        1,   608256, 0xae26094c
0,         27,         27,        1,   608256, 0xd425ba72
0,         28,         28,        1,   608256, 0xcec88ab3
0,         29,         29,        1,   608256, 0x06f3039e
0,         30,         30,        1,   608256, 0xa3c2ba79
0,         31,         31,        1,   608256, 0xcb16ae4f
0,         32,         32,        1,   608256, 0x3070b16b
0,         33,         33,        1,   608256, 0xf77f2d95
0,         34,         34,        1,   608256, 0x3c583fe1
0,         35,         35,        1,   608256, 0x5df42598
0,         36,         36,        1,   608256, 0x9dea1801
0,         37,         37,        1,   608256, 0x07acf3e7
0,         38,         38,        1,   608256, 0xe38fb57f
0,         39,         39,        1,   608256, 0xf8ab7dd5
0,         40,         40,        1,   608256, 0xf50a0496
0,         41,         41,        1,   608256, 0x68eabd15
0,         42,         42,        1,   608256, 0x8f92ea6a
0,         43,         43,        1,   608256, 0x8011cb64
0,         44,         44,        1,   608256, 0xb0879893
0,         45,         45,        1,   608256, 0x700524af
0,         46,         46,        1,   608256, 0x4b321d5b
0,         47,         47,        1,   608256, 0xa41cc7fd
0,         48,         48,        1,   608256, 0xa745ddee
0,         49,         49,        1,   608256, 0xd70f1ae5
